<svg id="Layer_1" data-name="Layer 1" xmlns="http://www.w3.org/2000/svg" viewBox="0 0 72.74 87.96"><defs><style>.cls-1{fill:#fb29fb;}</style></defs><path class="cls-1" d="M559.17,547.76c.05-4.27,0-8.54.15-12.81.45-13.33,6.52-23.52,17.76-30.43,15.79-9.72,37.74-6,49.28,12,10,15.57,6,36.38-8.48,47.82a35.42,35.42,0,0,1-16.18,7.58,4.92,4.92,0,0,1-2.07.1c-7.42,0-14.85.11-22.28,0-1.71,0-2.47.24-2.78,2.25-1,6.49-4.94,10.65-11.22,12.5-3.52,1-4.05.58-4.06-3Zm15.72,1.34a41.23,41.23,0,0,0,.43,7.08c7.29,0,14.58.12,21.87,0,5.33-.1,9.68-2.74,13.3-6.38,9.08-9.16,7.09-25.65-5-32.12a20.58,20.58,0,0,0-13.52-2.35c-8.9,1.54-14.63,7.08-16.59,15.94C574.05,537.11,575,543.15,574.89,549.1Z" transform="translate(-559.17 -499.3)"/></svg>